<?xml version="1.0" encoding="utf-8"?>
<!-- Generator: Adobe Illustrator 23.1.0, SVG Export Plug-In . SVG Version: 6.00 Build 0)  -->
<svg version="1.1" id="Слой_1" xmlns="http://www.w3.org/2000/svg" xmlns:xlink="http://www.w3.org/1999/xlink" x="0px" y="0px"
	 viewBox="0 0 239.7 114.1" style="enable-background:new 0 0 239.7 114.1;" xml:space="preserve">
<style type="text/css">
	.st0{fill:#E40712;}
	.st1{enable-background:new    ;}
	.st2{fill:#FFFFFF;}
</style>
<path class="st0" d="M99.6,38c0-0.6,0.1-1.6,0.3-3.3s1.3-6.7,5.7-9.5c-0.2,0-0.5-0.1-0.7-0.1c-0.6,0-2.4-0.1-4.9,0.8
	c1-1.5,4.7-4,6.1-4.7c0.1-0.1,0.3-0.2,0.4-0.2c-1.6-5.1-5-9.3-9.8-11.8c-3-1.6-6.1-2.4-10.3-2.5H78c-6.7,0-9.8-0.1-12.2-0.6
	c-2-0.5-3.8-1.6-3.8-1.6l-0.5-0.3l0.1,0.6c0,0.2,0.5,4.7,5.9,8.7c1,0.8,1.8,1.5,1.8,4.1v24.2c0,2.6-0.5,3.3-1.7,4
	c-1.3,0.8-4,2.3-4,2.4l-0.9,0.5h21.9c6.1,0,10-1,14.1-3.8c0.8-0.5,1.5-1.1,2.1-1.6c-0.4-3.1,0.1-5.9,0.5-7.5
	C101.3,35.7,100.2,36.7,99.6,38L99.6,38z M85.6,38.5h-4.7V16.9h4.7c6.2,0,9.7,3.9,9.7,10.8S91.8,38.5,85.6,38.5z M146.3,43.9
	c0.4-0.8,0.6-1.8,0.6-2.8s-0.3-2-0.7-2.8l1.2,0.2c0.8,0.1,2.3,1.1,2.3,2.6C149.7,42.9,147.9,43.7,146.3,43.9L146.3,43.9z
	 M169.5,44.9c-4.2,2.8-8,3.8-14.1,3.8h-0.2c1-1.2,1.5-2.8,1.5-4.4c0-2.3-1.1-4.4-2.9-5.8h2.6c6.2,0,9.7-3.9,9.7-10.8
	s-3.5-10.8-9.7-10.8h-4.7v2.7c-0.7-0.1-1.3-0.2-2-0.2c-1.1,0-2.4,0.2-2.7,0.4c1.3-1.1,2.8-1.6,3.8-1.8c-4.4-1-8.5,1.5-9.1,2.2
	c0.5-1.1,1.5-2.1,2.2-2.8c-1.4,0.5-2.7,1.2-3.8,1.9v-1.8c0-2.7-0.7-3.4-1.8-4.1c-5.4-3.9-5.9-8.5-5.9-8.7l-0.1-0.6l0.5,0.3
	c0,0,1.8,1.2,3.8,1.6c2.3,0.5,5.5,0.6,12.2,0.6h8.4c4.2,0.2,7.3,0.9,10.3,2.5c6.8,3.5,10.8,10.4,10.8,18.4c0,4.9-1.6,9.7-4.4,13.1
	C172.8,42.3,171.3,43.7,169.5,44.9z M148.3,36.6c-1.5,0-3.1,0.3-3.1,0.3c-0.3-0.3-2.3-1.8-3.2-2c1.6,1.7,1.1,3.5,0.7,4.1
	c-0.3,0.5-0.9,0.8-1.4,0.8c-0.4,0-0.8-0.1-1.2-0.4v-9.8c0.4-0.5,0.8-1.1,1.3-1.6c1.1-1.3,2.9-2.1,4.7-2.1c1.1,0,2.2,0.3,2.9,0.9
	l0.6,0.4l0.5-0.5c0.3-0.3,1-0.6,1.7-0.9v11.5C150.7,36.8,149.6,36.6,148.3,36.6z M146.3,23c-3.7-0.5-9.4,2-12.3,5.6
	c0.6-2.4,3.2-6.3,6.4-8.1c0,0-1.6,2-0.9,2.3c1,0.5,3.6-3.6,7-3.7c0,0-2.5,1.2-2,2.1c0.4,0.6,2.1-0.8,5-0.8c3.6,0,6.8,2.2,8.3,3.9
	c-2.5-0.7-7.2,0.5-8.6,1.7c-2.1-1.6-6.2-1.4-8.5,1.3c-2.9,3.3-4.7,7.2-5.2,8.4c-1-0.8-1.9-1.5-2.5-2c-0.5-0.4-1-0.6-1.5-0.8
	C134.2,29.1,139.8,23.3,146.3,23z M107.3,11.8c-0.4-4.7,1.8-7.3,2.8-8.4c2.2-2.3,5.2-3.6,9.7-3.4c7,0.4,10.4,5.2,10.4,10.3
	c0,2.7-1.4,6.3-3.4,8.6l-0.4-0.4c-1.3-1.2-3.2-2.7-4.4-4.5c2.4-3.5,1.4-9-2.9-9c-2.7,0-4.9,2.8-4,6.2c-0.4,1.5-0.6,3.5-0.3,5
	c-3.1-1.6-4.1-3.7-4.7-5.6c-0.8,1.6-1.3,3.8-0.7,5.9C109.4,16.7,107.6,15.1,107.3,11.8L107.3,11.8z M109.1,20.3
	c-0.3,1.1-4.4,2.3-6.4,4.3c3-0.6,4.4-0.1,4.9,1.1c0.3,0.9-0.1,2.1-0.3,3.5c1-1.1,4.4-3.4,6.9-3.9c-0.6-0.2-2.1-0.5-2.7-0.5
	c1.8-2.1,5.8-2.8,8-2.3c-1.4-0.1-4.2,0.7-5.3,1.6c1,0.2,1.9,0.4,2.7,0.7c-1.3,0.5-3,2.1-3.6,3.8c1.7-1.2,5.2-0.9,5.8,1.6
	c0.4,1.7-0.8,3.2-1.4,3.5c0.5,0.1,1.7,0,2.2-0.3c-0.2,0.7-1.2,1.9-1.9,2.1c1.8,0,4.4-1.2,5.1-2.9c0,0-1.1,0.4-1.6-0.1
	s0.2-2.7,0.2-2.7s-0.7,0.9-1.3,0.4c-0.6-0.6,0.2-2.6,0.5-3c-0.6-0.2-2.2-0.4-2.9-0.3c2-0.7,6.5-1.1,7-0.2c0.4,0.7-0.6,2.1-0.6,2.1
	c0.8-0.1,3.1,0,3.9,0.9c0.8,1,0.3,2.3,0.3,2.3c1.8-0.9,3.4-3.7,3-6.5c-0.2,0.6-1,1.5-1.8,1.7c0.1-0.9-0.6-1.4-1.2-1.6
	c0.3-1.7-0.4-3.9-2.9-6.3c-2.1-2.1-6.1-4.9-5.9-8.6c-0.6,0.8-1.1,3.1-0.5,4.4c1.7,2,5.4,4.2,6.3,7.6c-1.6-4-9.4-7.1-9.1-12.6
	c-1,1-1.6,4.9-0.8,6.9c1.5,0.9,2.8,2.4,3,3.8c-1.4-3.2-7.1-3.8-8.7-7.6c-0.4,1.4-0.2,3.1,0.6,4.2c0,0-1.4-0.5-4.4-0.4
	C107.2,17.4,109.3,19.2,109.1,20.3z M125.3,24.9c-1.7,0-2.2-1.3-2.6-2.7C124.7,23,125.3,24.9,125.3,24.9z M147.1,51
	c1.2,1.1,4.1,1.9,5.6,1.2c-0.9,1.6-5.1,3.8-9,2.8c-3.7-1-5.4-4.5-5.4-6.8c-1.8,1.8-1.3,4.6,0,5.8c-1.4-0.4-3.6-1.9-4-4.6
	c-0.3-2.3,1-5-1.4-7.1c-1.4-1.3-3.7-3.1-5.1-4.2c-3-2.3-1.9-4.1-2.5-5.3c-0.5-1-1.8-1.5-2.5-2.4c-0.8-0.9-0.7-2.2-0.3-2.9
	c-0.1,1,0.6,1.8,1.6,2.2c1.1,0.4,2,0.1,3,0.6c1.1,0.7,0.6,2.4,1.4,3.1c0.7,0.5,2.6-0.2,4.1,1.1c1.6,1.3,5.1,4.2,6.6,5.4
	c2.7,2.2,5.5-0.3,4.6-2.9c2.8,1.6,3.1,6.2,0.8,7.8c2.2,0.5,6.1-0.5,6.1-3.6c0-1.9-1.8-3.3-3-3.5c4.5-0.4,8.4,2.7,8.4,6.7
	C155.9,48.4,151.8,51.6,147.1,51L147.1,51z M132.2,42.8l0.3,0.3c-2.4,4.9-6.9,11.2-15.5,11.2c-3.1,0-5.9-1.1-7.9-2.6
	c-0.7-0.5-1.3-1.1-1.8-1.8c-0.3-0.4-0.6-0.7-0.9-1.1c-0.4-0.5-0.7-0.5-0.9-0.2c-0.4,0.6,0.3,2.5,0.3,2.5c-6.8-6.4-3.3-15.8-3.2-16.2
	c0.4-1.2,0-1.4-0.4-1.2c-0.6,0.2-1.3,1.2-1.3,1.2c0.5-5.7,5.8-9.2,5.8-9.2l0.1,0.1c0.6,0.9-0.3,2-0.4,5.6c1-1.4,4.9-4.1,7.1-4.9
	c-0.7,0.9-1.3,2.2-1.3,4.1c0,0,1.6-1.8,3.6-1.8c0.5,0,1,0.1,1.4,0.3c-7.6,7.4-4.4,16.6,2,16.6c3.6,0,7.2-4,8.7-6.7
	C129,40.1,130.9,41.7,132.2,42.8L132.2,42.8z"/>
<g class="st1">
	<path class="st2" d="M28.7,63.6c0,0.5-0.2,1.3-0.5,2.3c-0.2,0.5-0.3,1-0.5,1.3c-0.1,0.4-0.3,0.7-0.4,1c-0.8,1.5-2.1,3-3.9,4.6
		c-1.8,1.6-3.6,3-5.4,4.2c-1.2,0.8-2.4,1.5-3.5,2.2c-1.2,0.6-2.4,1.2-3.6,1.7c-0.1,0.1-0.1,0.4-0.1,0.9v0.7c0,0.4,0,1,0.1,1.7
		c0,0.7,0.1,1.6,0.1,2.7c0.1,1.1,0.1,2,0.1,2.8c0,0.8,0,1.5,0,2.1c0,0.6-0.1,1-0.4,1.3s-0.6,0.5-1,0.5C8.6,93.6,8,90.1,8,83.1v-0.6
		c0-0.8,0-1.7,0.1-2.7s0.2-2.1,0.3-3.5c0.1-0.4,0.1-0.9,0.2-1.3c0-0.5,0.1-0.9,0.2-1.5c0.1-1,0.2-1.9,0.3-2.6
		c0.1-0.7,0.2-1.4,0.4-2.1c0-0.2,0.1-0.4,0.1-0.7c0-0.3,0.1-0.6,0.2-0.9c0.1-0.7,0.2-1.3,0.4-1.8c0.1-0.5,0.3-1,0.5-1.5
		c0.2-0.5,0.4-0.9,0.7-1.3c0.2-0.1,0.4-0.1,0.6-0.1c0.4,0,0.7,0.2,0.9,0.5c0.2,0.3,0.3,0.8,0.3,1.4c0,0.1,0,0.3-0.1,0.7
		s-0.2,0.8-0.3,1.2c-0.1,0.4-0.2,0.8-0.3,1.2s-0.2,0.6-0.2,0.7c-0.1,0.3-0.2,0.7-0.3,1.3c-0.1,0.4-0.1,0.9-0.2,1.3s-0.1,0.9-0.2,1.4
		c-0.1,0.5-0.1,1-0.2,1.5c-0.1,0.5-0.1,1-0.1,1.4c0,0.4-0.1,0.9-0.1,1.3c0,0.4,0,0.7-0.1,1c0.4-0.2,0.8-0.4,1.3-0.7
		c0.5-0.3,1.1-0.6,1.8-1c1.3-0.7,2.5-1.4,3.5-2c1-0.6,2-1.4,3-2.1c0.6-0.5,1.3-1.1,1.9-1.7c0.6-0.6,1.2-1.3,1.8-2.1
		c1.2-1.6,1.7-3,1.7-4.3c0-0.6-0.5-1.1-1.4-1.4c-0.5-0.2-0.9-0.3-1.4-0.4c-0.5-0.1-0.9-0.2-1.4-0.2c-0.5-0.1-0.9-0.1-1.3-0.1
		c-0.4,0-0.8,0-1.2,0c-2.2,0-4.5,0.3-7,0.9c-1.2,0.3-2.9,1-5.1,2c-0.3,0.1-0.5,0.2-0.6,0.2c-0.2,0-0.4-0.1-0.6-0.3
		c-0.2-0.2-0.2-0.5-0.2-0.8c0-0.7,0.2-1.3,0.5-1.7c0.3-0.4,0.8-0.8,1.4-1.2c0.6-0.4,1.7-0.7,3-1.1c0.7-0.2,1.4-0.4,2-0.5
		c0.7-0.1,1.4-0.3,2.1-0.4c1.4-0.2,2.5-0.3,3.2-0.3c0.6,0,1.2,0,1.7,0c0.6,0,1.1,0,1.7,0.1c0.5,0.1,1.1,0.1,1.6,0.2
		c0.5,0.1,1.1,0.3,1.6,0.4c1.1,0.4,2.1,0.9,2.8,1.7C28.3,61.2,28.7,62.3,28.7,63.6z"/>
	<path class="st2" d="M47.9,73.1c0,0.1,0,0.2,0,0.4c0,0.2,0,0.3-0.1,0.5c0,0.2-0.1,0.3-0.2,0.5c-0.1,0.1-0.1,0.2-0.2,0.2
		c-0.1,0-0.2,0-0.3,0c-0.2,0-0.3,0-0.5,0s-0.3,0-0.5,0c-0.2,0-0.3,0-0.3,0c-2.1,0.2-3.9,1.2-5.3,3.1c-1.4,1.8-2.6,4.3-3.6,7.3
		c-0.2,0.6-0.4,1.3-0.6,2c-0.2,0.7-0.4,1.4-0.5,2.1c-0.1,0.4-0.2,0.8-0.2,1.1c0,0.3-0.1,0.6-0.2,1c0,0.1-0.1,0.2-0.3,0.3
		c-0.2,0.1-0.4,0.2-0.6,0.3S34.1,91.9,34,92s-0.3,0.1-0.4,0.1c-0.8,0.1-1.2-1-1.3-3.1c0-0.6,0-1.1,0-1.6c0-0.5,0-0.9,0-1.4
		c0-0.4,0.1-0.9,0.1-1.4c0-0.5,0.1-1,0.1-1.7c0.1-0.8,0.1-1.6,0.2-2.6c0.1-1,0.2-2,0.3-3c0.1-1,0.2-2,0.3-2.9
		c0.1-0.9,0.2-1.7,0.4-2.3c0.1-0.7,0.3-1.2,0.5-1.5c0.2-0.3,0.5-0.5,1-0.5c0.1,0,0.2,0,0.4,0.1s0.2,0.2,0.4,0.3
		c0.1,0.1,0.2,0.3,0.3,0.4c0.1,0.1,0.1,0.3,0.1,0.4c0,0.4,0,0.8,0,1.2s-0.1,0.9-0.1,1.3s-0.1,0.9-0.2,1.4c-0.1,0.5-0.2,0.9-0.2,1.3
		c-0.2,0.8-0.3,1.5-0.4,2.1c-0.1,0.6-0.2,1.2-0.2,1.7c-0.1,0.6-0.1,1.2-0.2,1.8s-0.1,1.4-0.2,2.4c0.2-0.6,0.4-1,0.5-1.4
		c0.1-0.4,0.3-0.7,0.4-1c0.1-0.3,0.2-0.6,0.3-0.8s0.2-0.5,0.3-0.7c0.1-0.3,0.2-0.5,0.4-0.8s0.3-0.7,0.5-1.1c0.8-1.7,1.6-3.1,2.5-4.2
		c0.9-1.1,1.8-1.8,2.6-2.3c0.9-0.6,1.7-0.9,2.3-0.9c0.3,0,0.6,0,1,0.1s0.8,0.2,1.2,0.3s0.7,0.4,0.9,0.6
		C47.8,72.4,47.9,72.7,47.9,73.1z"/>
	<path class="st2" d="M72.8,72.4c0,0.3,0,0.5-0.1,0.8c-0.1,0.3-0.2,0.5-0.3,0.7c-0.1,0.2-0.3,0.5-0.4,0.7c-0.2,0.2-0.3,0.4-0.5,0.5
		c-0.4,0.3-0.9,0.6-1.7,0.9c-0.7,0.3-1.6,0.4-2.7,0.4c-0.8,0-1.7-0.1-2.6-0.4c-0.9-0.3-1.7-0.8-2.5-1.4c0.3,0.5,0.4,1,0.5,1.5
		c0.1,0.5,0.1,1,0.1,1.7c0,1.2-0.2,2.4-0.7,3.7c-0.4,1.3-1,2.5-1.7,3.7c-0.7,1.1-1.4,2.1-2.2,2.8c-0.4,0.4-0.9,0.8-1.4,1.1
		c-0.5,0.3-1.1,0.6-1.6,0.8c-0.6,0.2-1.2,0.3-1.8,0.4c-0.6,0.1-1.2,0.1-1.9,0.1c-0.4,0-0.9-0.2-1.3-0.5S49.3,89,49,88.4
		c-0.3-0.5-0.6-1.1-0.8-1.7c-0.2-0.6-0.3-1.1-0.3-1.6c0-1.2,0.1-2.3,0.4-3.4c0.2-1.1,0.6-2.1,1-3.2c0.4-1,0.9-2,1.4-3
		c0.5-1,1.1-1.9,1.7-2.9c0.3-0.5,0.7-1.1,1.1-1.6c0.4-0.5,0.9-1,1.3-1.4c0.5-0.4,0.9-0.7,1.4-1c0.5-0.3,0.9-0.4,1.4-0.4
		c0.4,0,0.7,0.1,0.9,0.2s0.5,0.3,0.7,0.6c0.2,0.2,0.5,0.5,0.7,0.9c0.2,0.4,0.5,0.8,0.8,1.2c0.1,0.1,0.4,0.3,0.8,0.6
		c0.5,0.3,1,0.5,1.6,0.7c0.6,0.2,1.3,0.5,1.9,0.6c0.7,0.2,1.3,0.3,1.9,0.3s1.1,0,1.5-0.1c0.5-0.1,0.9-0.1,1.4-0.3s0.9-0.3,1.3-0.5
		c0.4-0.2,0.9-0.5,1.4-0.7C72.8,72.1,72.8,72.2,72.8,72.4z M60.3,77.7c0-0.4,0-0.9-0.1-1.4c-0.1-0.5-0.2-1-0.3-1.5
		c-0.1-0.5-0.3-0.8-0.6-1.1s-0.5-0.4-0.8-0.4c-0.5-0.3-0.9-0.5-1.3-0.8c-0.3-0.3-0.6-0.4-0.8-0.4c-0.1,0-0.3,0.1-0.4,0.2
		c-0.2,0.1-0.3,0.3-0.5,0.5c-0.2,0.2-0.3,0.4-0.5,0.7c-0.2,0.3-0.3,0.5-0.5,0.8c-0.3,0.6-0.6,1.1-0.9,1.6s-0.6,0.9-0.8,1.4
		c-0.3,0.5-0.5,0.9-0.7,1.5s-0.5,1.1-0.7,1.7c-0.1,0.3-0.2,0.6-0.3,0.9c-0.1,0.4-0.1,0.7-0.2,1.1s-0.1,0.8-0.1,1.2c0,0.4,0,0.7,0,1
		c0,0.2,0,0.4,0.2,0.7c0.1,0.3,0.2,0.5,0.4,0.8c0.2,0.3,0.3,0.5,0.6,0.6c0.2,0.2,0.4,0.3,0.6,0.3c0.6,0,1.1,0,1.5-0.1
		c0.4-0.1,0.8-0.2,1.1-0.4c0.3-0.2,0.7-0.4,1-0.7c0.3-0.3,0.7-0.7,1.2-1.1c0.2-0.2,0.4-0.5,0.7-0.8c0.2-0.3,0.4-0.6,0.6-0.9
		s0.4-0.7,0.6-1c0.2-0.3,0.4-0.7,0.5-1c0.1-0.2,0.2-0.5,0.3-0.8s0.1-0.6,0.2-1c0-0.3,0.1-0.6,0.1-0.9S60.3,77.8,60.3,77.7z"/>
	<path class="st2" d="M81.5,73.9c-0.1,1-0.2,2.1-0.2,3.4c-0.1,1.2-0.1,2.6-0.2,4.1c0,0.6-0.1,1.2-0.1,1.9c-0.1,0.7-0.1,1.4-0.2,2.2
		c-0.1,0.7-0.1,1.5-0.2,2.2c-0.1,0.7-0.1,1.4-0.2,2c-0.1,0.9-0.2,1.7-0.4,2.6c-0.2,0.9-0.4,1.8-0.6,2.7c-0.2,0.9-0.5,1.7-0.9,2.5
		c-0.3,0.8-0.7,1.5-1.2,2.1c-0.5,0.6-1,1.1-1.6,1.5c-0.6,0.4-1.3,0.5-2.1,0.5c-0.5,0-1-0.1-1.5-0.2s-1-0.4-1.5-0.6
		c-0.5-0.3-1-0.6-1.4-1c-0.5-0.4-0.9-0.8-1.3-1.2c-0.4-0.5-0.8-0.9-1.2-1.4c-0.3-0.5-0.6-1-0.8-1.5c-0.2-0.5-0.3-1-0.3-1.5
		c0-0.5,0.1-0.7,0.3-0.7c0.1,0,0.2,0.1,0.3,0.2c0,0,0.1,0.1,0.2,0.2c0.1,0.1,0.1,0.2,0.2,0.3c0.1,0.1,0.1,0.2,0.2,0.2
		c0,0.1,0.1,0.1,0.1,0.1c2.2,2.6,4.4,3.9,6.9,3.9c0.8,0,1.5-0.2,2-0.7c0.5-0.5,0.9-1.1,1.2-1.9c0.3-0.8,0.5-1.7,0.7-2.6
		c0.2-1,0.3-1.9,0.4-2.8c0.1-0.6,0.1-1.2,0.2-1.8s0.1-1.2,0.1-1.8c0-0.6,0.1-1.3,0.1-2c0-0.7,0.1-1.5,0.2-2.3
		c-0.5,0.6-1,1.3-1.7,2.1c-0.7,0.7-1.4,1.4-2.2,2c-0.8,0.6-1.6,1.1-2.4,1.5c-0.8,0.4-1.6,0.6-2.2,0.6c-0.3,0-0.6-0.1-0.8-0.3
		s-0.5-0.4-0.6-0.8c-0.2-0.3-0.3-0.7-0.4-1.2c-0.1-0.5-0.2-1-0.2-1.6c0-0.8,0.1-1.8,0.3-2.7c0.2-1,0.5-1.9,0.9-2.9
		c0.3-1,0.7-1.9,1.2-2.8s0.8-1.7,1.2-2.4c0.4-0.7,0.9-1.4,1.5-2.2s1.2-1.5,1.8-2.1s1.3-1.2,2-1.6s1.4-0.6,2.1-0.6
		c0.6,0,1.1,0.2,1.7,0.5c0.5,0.3,0.9,0.9,1.2,1.5c0.1,0.2,0.1,0.4,0.1,0.7s0,0.7,0,1.1s-0.1,0.8-0.1,1.3S81.6,73.5,81.5,73.9z
		 M78.8,77.9c0-0.4,0.1-1,0.1-1.6c0-0.6,0.1-1.4,0.2-2.3c0-0.5,0.1-1,0.1-1.5c0-0.5,0-0.9,0-1.2c-0.1-0.4-0.3-0.7-0.5-0.8
		c-0.3-0.1-0.7-0.2-1.3-0.2c-0.5,0.4-1.1,1-1.6,1.6c-0.5,0.6-1,1.3-1.5,2.1c-0.5,0.7-0.9,1.5-1.3,2.3c-0.4,0.8-0.8,1.6-1.1,2.3
		c-0.3,0.8-0.6,1.7-0.8,2.5c-0.2,0.8-0.3,1.5-0.3,2.1c0,0.2,0,0.5,0.1,0.6c0.1,0.2,0.2,0.3,0.3,0.4c0.1,0.1,0.3,0.2,0.4,0.2
		c0.2,0,0.3,0.1,0.5,0.1c0.4,0,0.8-0.1,1.3-0.3c0.5-0.2,0.9-0.5,1.3-0.8c0.4-0.3,0.9-0.7,1.3-1s0.7-0.7,1-1c0.1-0.1,0.3-0.3,0.5-0.5
		c0.2-0.2,0.4-0.5,0.6-0.9c0.2-0.3,0.4-0.7,0.5-1C78.6,78.7,78.7,78.3,78.8,77.9z"/>
	<path class="st2" d="M102,73.1c0,0.1,0,0.2,0,0.4c0,0.2,0,0.3-0.1,0.5c0,0.2-0.1,0.3-0.2,0.5s-0.1,0.2-0.2,0.2c-0.1,0-0.2,0-0.3,0
		c-0.2,0-0.3,0-0.5,0s-0.3,0-0.5,0c-0.2,0-0.3,0-0.3,0c-2.1,0.2-3.9,1.2-5.3,3.1c-1.4,1.8-2.6,4.3-3.6,7.3c-0.2,0.6-0.4,1.3-0.6,2
		c-0.2,0.7-0.4,1.4-0.5,2.1c-0.1,0.4-0.2,0.8-0.2,1.1c0,0.3-0.1,0.6-0.2,1c0,0.1-0.1,0.2-0.3,0.3c-0.2,0.1-0.4,0.2-0.6,0.3
		c-0.2,0.1-0.4,0.2-0.6,0.2s-0.3,0.1-0.4,0.1c-0.8,0.1-1.2-1-1.3-3.1c0-0.6,0-1.1,0-1.6c0-0.5,0-0.9,0-1.4c0-0.4,0.1-0.9,0.1-1.4
		c0-0.5,0.1-1,0.1-1.7c0.1-0.8,0.1-1.6,0.2-2.6c0.1-1,0.2-2,0.3-3c0.1-1,0.2-2,0.3-2.9c0.1-0.9,0.2-1.7,0.4-2.3
		c0.1-0.7,0.3-1.2,0.5-1.5c0.2-0.3,0.5-0.5,1-0.5c0.1,0,0.2,0,0.4,0.1c0.1,0.1,0.2,0.2,0.4,0.3c0.1,0.1,0.2,0.3,0.3,0.4
		s0.1,0.3,0.1,0.4c0,0.4,0,0.8,0,1.2s-0.1,0.9-0.1,1.3s-0.1,0.9-0.2,1.4c-0.1,0.5-0.2,0.9-0.2,1.3c-0.2,0.8-0.3,1.5-0.4,2.1
		c-0.1,0.6-0.2,1.2-0.2,1.7c-0.1,0.6-0.1,1.2-0.2,1.8s-0.1,1.4-0.2,2.4c0.2-0.6,0.4-1,0.5-1.4s0.3-0.7,0.4-1
		c0.1-0.3,0.2-0.6,0.3-0.8s0.2-0.5,0.3-0.7c0.1-0.3,0.2-0.5,0.4-0.8s0.3-0.7,0.5-1.1c0.8-1.7,1.6-3.1,2.5-4.2s1.8-1.8,2.6-2.3
		c0.9-0.6,1.7-0.9,2.3-0.9c0.3,0,0.6,0,1,0.1s0.8,0.2,1.2,0.3c0.4,0.2,0.7,0.4,0.9,0.6C101.8,72.4,102,72.7,102,73.1z"/>
	<path class="st2" d="M128.2,75.9c0,0.2,0,0.4,0,0.6s-0.1,0.5-0.1,0.7s-0.1,0.5-0.2,0.7c-0.1,0.2-0.1,0.4-0.2,0.5
		c-0.1,0.1-0.2,0.3-0.3,0.5c-0.1,0.2-0.3,0.4-0.4,0.6s-0.3,0.5-0.5,0.7c-0.2,0.3-0.4,0.5-0.6,0.7c-0.7,0.8-1.4,1.6-2,2.4
		c-0.7,0.8-1.3,1.5-2,2.1c-0.7,0.6-1.4,1.1-2.2,1.4s-1.6,0.5-2.5,0.5c-0.4,0-0.8-0.1-1.2-0.3c-0.4-0.2-0.8-0.5-1.2-0.8
		c-0.4-0.4-0.7-0.8-1-1.3c-0.3-0.5-0.5-1.1-0.6-1.7c-0.3,0.4-0.7,0.9-1,1.4c-0.4,0.5-0.7,1-1.1,1.4c-0.4,0.5-0.8,1-1.2,1.4
		c-0.4,0.5-0.8,0.9-1.3,1.3c-0.2,0.2-0.5,0.4-0.9,0.7s-0.7,0.5-1.1,0.6c-0.4,0.2-0.7,0.4-1.1,0.5c-0.4,0.1-0.7,0.2-1,0.2
		c-0.5,0-0.9-0.2-1.2-0.6c-0.3-0.4-0.6-0.8-0.8-1.4c-0.2-0.5-0.4-1.1-0.5-1.7c-0.1-0.6-0.2-1.2-0.2-1.6c0-1,0.1-2,0.3-3
		c0.2-1,0.5-2,0.8-3s0.7-1.9,1.1-2.7c0.4-0.9,0.8-1.6,1.2-2.3c0.4-0.7,0.9-1.4,1.5-2.1c0.6-0.7,1.2-1.3,1.8-1.9
		c0.6-0.5,1.2-1,1.8-1.3c0.6-0.3,1.1-0.5,1.6-0.5c0.2,0,0.5,0,0.7,0s0.5,0,0.8,0.1c0.3,0,0.5,0.1,0.8,0.2c0.2,0.1,0.5,0.2,0.7,0.4
		c0.1,0.1,0.2,0.3,0.4,0.5c0.1,0.3,0.3,0.5,0.4,0.8s0.2,0.6,0.3,0.9c0.1,0.3,0.1,0.5,0.1,0.7c0,0.5-0.1,1.1-0.3,1.9
		c-0.2,1-0.3,1.9-0.5,2.8c-0.2,0.8-0.2,1.7-0.2,2.6c0,0.5,0.1,1,0.2,1.5c0.1,0.5,0.3,1,0.5,1.4c0.2,0.4,0.5,0.8,0.8,1
		c0.3,0.3,0.7,0.4,1.1,0.4c0.7,0,1.4-0.2,2.1-0.6c0.7-0.4,1.4-0.9,2.2-1.5c0.7-0.7,1.5-1.4,2.2-2.3c0.7-0.9,1.4-1.8,2.1-2.7
		c0.1-0.1,0.2-0.2,0.3-0.5c0.1-0.2,0.3-0.4,0.4-0.6c0.2-0.2,0.3-0.4,0.4-0.6c0.1-0.2,0.3-0.3,0.3-0.3
		C128.1,75,128.2,75.3,128.2,75.9z M113.4,74c0-0.2,0-0.6,0-0.9c0-0.4-0.1-0.7-0.2-0.9s-0.3-0.3-0.5-0.3c-0.2,0-0.4,0-0.5,0
		c-0.4,0-0.8,0.1-1.1,0.2s-0.7,0.4-1.1,0.7c-0.3,0.3-0.7,0.6-1,1c-0.3,0.4-0.6,0.8-0.9,1.2c-0.3,0.3-0.5,0.8-0.8,1.3s-0.6,1-0.8,1.6
		c-0.3,0.6-0.5,1.2-0.8,1.9s-0.5,1.3-0.7,1.9s-0.3,1.3-0.5,1.8s-0.2,1.1-0.2,1.6c0,0.1,0,0.3,0,0.6c0,0.2,0.1,0.5,0.1,0.7
		c0.1,0.2,0.1,0.4,0.3,0.6c0.1,0.2,0.2,0.2,0.4,0.2c0.5,0,1.2-0.2,1.9-0.6c1-0.6,2-1.4,2.9-2.4c0.9-1,1.6-2.2,2.2-3.5
		C112.9,78.6,113.4,76.4,113.4,74z"/>
	<path class="st2" d="M163.1,75.5c0,0.1,0,0.3-0.1,0.5c0,0.2-0.1,0.4-0.2,0.7c-0.1,0.2-0.1,0.5-0.2,0.7c-0.1,0.2-0.2,0.5-0.3,0.6
		c-0.2,0.4-0.4,0.8-0.7,1.3s-0.6,1-1,1.5c-0.4,0.5-0.8,1.1-1.2,1.6s-0.8,1-1.2,1.5c-0.3,0.4-0.7,0.7-1.1,1.2s-0.9,0.8-1.3,1.2
		c-0.5,0.4-0.9,0.7-1.4,0.9c-0.5,0.2-1,0.4-1.4,0.4c-0.4,0-0.7-0.1-1.1-0.2s-0.6-0.4-0.9-0.8c-0.3-0.4-0.5-1-0.7-1.7
		c-0.2-0.7-0.4-1.6-0.5-2.7c-0.1-0.5-0.1-1-0.2-1.5c0-0.5-0.1-1.1-0.2-1.6s-0.1-1-0.1-1.5c0-0.5-0.1-0.9-0.2-1.3
		c-0.1-0.4-0.1-0.7-0.2-0.9s-0.2-0.3-0.2-0.3c-0.1,0-0.3,0.2-0.6,0.5s-0.6,0.8-0.9,1.4c-0.4,0.6-0.7,1.3-1.2,2.2
		c-0.4,0.9-0.9,1.8-1.3,2.9c-0.9,2.1-1.7,3.7-2.3,4.8c-0.6,1.1-1.2,1.6-1.7,1.6c-0.8,0-1.3-0.5-1.6-1.4c-0.2-1-0.4-2.6-0.5-4.9
		c0-2.2-0.2-3.9-0.4-5.1c-0.2-1.2-0.5-1.8-0.8-1.8c-0.2,0-0.5,0.2-0.9,0.7c-0.4,0.5-0.8,1.1-1.3,2c-0.5,0.8-1,1.8-1.6,3
		c-0.6,1.1-1.1,2.4-1.7,3.7c-0.2,0.4-0.3,0.8-0.5,1.2c-0.2,0.5-0.4,0.9-0.6,1.4c-0.2,0.5-0.4,0.9-0.6,1.3s-0.4,0.7-0.5,1
		c-0.3,0.6-0.7,0.9-1.2,0.9c-0.8,0-1.4-0.6-1.7-1.7c-0.1-0.3-0.1-0.5-0.2-0.7c0-0.2-0.1-0.4-0.1-0.5s0-0.4,0-0.6s0-0.5,0-0.9
		c0-0.6,0-1.1,0-1.6c0-0.5,0.1-1,0.1-1.5c0-0.5,0.1-1,0.2-1.6c0.1-0.6,0.1-1.2,0.2-2c0.1-0.6,0.1-1.3,0.2-2c0-0.7,0.1-1.4,0.1-2.1
		s0.1-1.3,0.1-1.9c0-0.6,0.1-1,0.2-1.4c0-0.2,0.1-0.4,0.2-0.6c0.1-0.2,0.3-0.5,0.4-0.7c0.2-0.2,0.3-0.4,0.5-0.5
		c0.2-0.2,0.3-0.2,0.5-0.2c0.2,0,0.4,0.1,0.6,0.2s0.3,0.3,0.4,0.6s0.2,0.5,0.2,0.8s0.1,0.6,0.1,1c0,0.4,0,0.8-0.1,1.3
		c-0.1,0.5-0.1,1.1-0.2,1.7s-0.2,1.3-0.3,1.9c-0.1,0.7-0.2,1.3-0.3,1.9c-0.1,0.6-0.2,1.2-0.2,1.7c-0.1,0.5-0.1,0.9-0.2,1.2
		c-0.1,0.8-0.2,1.4-0.2,1.9c0,0.5,0,0.9,0,1.2c0.1-0.2,0.3-0.5,0.6-0.9c0.2-0.4,0.5-0.8,0.7-1.3c0.3-0.5,0.5-1.1,0.8-1.7
		c0.3-0.6,0.6-1.2,0.9-1.9c0.2-0.5,0.4-1,0.7-1.5c0.3-0.6,0.5-1.1,0.8-1.7c0.3-0.6,0.6-1.1,0.8-1.6c0.3-0.5,0.5-0.9,0.8-1.3
		c0.5-0.7,1-1.2,1.5-1.6c0.5-0.4,1-0.5,1.6-0.5c0.5,0,1,0.3,1.4,0.8s0.7,1.3,0.8,2.1c0.1,0.4,0.1,0.9,0.2,1.4s0.1,1.1,0.1,1.7
		c0,0.6,0.1,1.2,0.1,1.8c0,0.6,0.1,1.1,0.1,1.7c0,0.5,0.1,0.9,0.1,1.3c0.1,0.3,0.1,0.6,0.2,0.8c0.1,0.2,0.1,0.3,0.2,0.4
		c0.1,0.1,0.1,0.1,0.1,0.1c0.2,0,0.6-0.6,1.1-1.7c0.3-0.6,0.5-1.2,0.9-2c0.3-0.7,0.7-1.5,1-2.4c0.4-0.9,0.8-1.7,1.2-2.5
		c0.4-0.8,0.9-1.5,1.3-2.1c0.4-0.6,0.8-1.1,1.2-1.5s0.7-0.5,0.9-0.5c0.2,0,0.3,0,0.5,0.1c0.2,0,0.4,0.1,0.5,0.2
		c0.2,0.1,0.3,0.2,0.4,0.3c0.1,0.1,0.2,0.3,0.3,0.4c0.2,0.4,0.3,0.8,0.4,1.2c0.1,0.4,0.1,1,0.2,1.5c0,0.6,0.1,1.2,0.1,1.9
		c0,0.7,0.1,1.5,0.1,2.4c0.2,1.8,0.4,3.2,0.7,4.1c0.3,0.9,0.8,1.4,1.4,1.4c0.2,0,0.5-0.1,0.9-0.3c0.4-0.2,0.7-0.5,1.1-0.8
		c0.4-0.3,0.8-0.7,1.2-1.1c0.4-0.4,0.8-0.8,1.2-1.2c0.4-0.4,0.7-0.8,1-1.2s0.7-0.8,1-1.3c0.3-0.4,0.7-0.9,1-1.4s0.7-1,1.1-1.5
		c0.1-0.2,0.3-0.3,0.4-0.3C163,74.9,163.1,75.1,163.1,75.5z"/>
	<path class="st2" d="M197.9,75.5c0,0.1,0,0.3-0.1,0.5s-0.1,0.4-0.2,0.7c-0.1,0.2-0.1,0.5-0.2,0.7c-0.1,0.2-0.2,0.5-0.3,0.6
		c-0.2,0.4-0.4,0.8-0.7,1.3s-0.6,1-1,1.5s-0.8,1.1-1.2,1.6c-0.4,0.5-0.8,1-1.2,1.5c-0.3,0.4-0.7,0.7-1.1,1.2
		c-0.4,0.4-0.9,0.8-1.3,1.2c-0.5,0.4-0.9,0.7-1.4,0.9c-0.5,0.2-1,0.4-1.4,0.4c-0.4,0-0.7-0.1-1.1-0.2c-0.3-0.1-0.6-0.4-0.9-0.8
		s-0.5-1-0.7-1.7c-0.2-0.7-0.4-1.6-0.5-2.7c-0.1-0.5-0.1-1-0.2-1.5c-0.1-0.5-0.1-1.1-0.2-1.6c-0.1-0.5-0.1-1-0.1-1.5
		c0-0.5-0.1-0.9-0.2-1.3c-0.1-0.4-0.1-0.7-0.2-0.9c-0.1-0.2-0.2-0.3-0.2-0.3c-0.1,0-0.3,0.2-0.6,0.5c-0.3,0.3-0.6,0.8-0.9,1.4
		c-0.4,0.6-0.7,1.3-1.2,2.2c-0.4,0.9-0.9,1.8-1.3,2.9c-0.9,2.1-1.7,3.7-2.3,4.8c-0.6,1.1-1.2,1.6-1.7,1.6c-0.8,0-1.3-0.5-1.6-1.4
		c-0.2-1-0.4-2.6-0.5-4.9c0-2.2-0.2-3.9-0.4-5.1c-0.2-1.2-0.5-1.8-0.8-1.8c-0.2,0-0.5,0.2-0.9,0.7c-0.4,0.5-0.8,1.1-1.3,2
		c-0.5,0.8-1,1.8-1.6,3s-1.1,2.4-1.7,3.7c-0.2,0.4-0.3,0.8-0.5,1.2c-0.2,0.5-0.4,0.9-0.6,1.4c-0.2,0.5-0.4,0.9-0.6,1.3
		c-0.2,0.4-0.4,0.7-0.5,1c-0.3,0.6-0.7,0.9-1.2,0.9c-0.8,0-1.4-0.6-1.7-1.7c-0.1-0.3-0.1-0.5-0.2-0.7c0-0.2-0.1-0.4-0.1-0.5
		c0-0.2,0-0.4,0-0.6c0-0.2,0-0.5,0-0.9c0-0.6,0-1.1,0-1.6c0-0.5,0.1-1,0.1-1.5c0-0.5,0.1-1,0.2-1.6c0.1-0.6,0.1-1.2,0.2-2
		c0.1-0.6,0.1-1.3,0.2-2c0-0.7,0.1-1.4,0.1-2.1s0.1-1.3,0.1-1.9c0-0.6,0.1-1,0.2-1.4c0-0.2,0.1-0.4,0.2-0.6c0.1-0.2,0.3-0.5,0.4-0.7
		c0.2-0.2,0.3-0.4,0.5-0.5c0.2-0.2,0.3-0.2,0.5-0.2c0.2,0,0.4,0.1,0.6,0.2s0.3,0.3,0.4,0.6s0.2,0.5,0.2,0.8s0.1,0.6,0.1,1
		c0,0.4,0,0.8-0.1,1.3c0,0.5-0.1,1.1-0.2,1.7s-0.2,1.3-0.3,1.9c-0.1,0.7-0.2,1.3-0.3,1.9c-0.1,0.6-0.2,1.2-0.2,1.7s-0.1,0.9-0.2,1.2
		c-0.1,0.8-0.2,1.4-0.2,1.9s0,0.9,0,1.2c0.1-0.2,0.3-0.5,0.6-0.9c0.2-0.4,0.5-0.8,0.7-1.3c0.3-0.5,0.5-1.1,0.8-1.7
		c0.3-0.6,0.6-1.2,0.9-1.9c0.2-0.5,0.4-1,0.7-1.5c0.3-0.6,0.5-1.1,0.8-1.7c0.3-0.6,0.6-1.1,0.8-1.6c0.3-0.5,0.5-0.9,0.8-1.3
		c0.5-0.7,1-1.2,1.5-1.6s1-0.5,1.6-0.5c0.5,0,1,0.3,1.4,0.8c0.4,0.5,0.7,1.3,0.8,2.1c0.1,0.4,0.1,0.9,0.2,1.4c0,0.5,0.1,1.1,0.1,1.7
		s0.1,1.2,0.1,1.8c0,0.6,0.1,1.1,0.1,1.7c0,0.5,0.1,0.9,0.1,1.3c0.1,0.3,0.1,0.6,0.2,0.8c0.1,0.2,0.1,0.3,0.2,0.4
		c0.1,0.1,0.1,0.1,0.1,0.1c0.2,0,0.6-0.6,1.1-1.7c0.3-0.6,0.5-1.2,0.9-2c0.3-0.7,0.7-1.5,1-2.4c0.4-0.9,0.8-1.7,1.2-2.5
		c0.4-0.8,0.9-1.5,1.3-2.1c0.4-0.6,0.8-1.1,1.2-1.5c0.4-0.4,0.7-0.5,0.9-0.5c0.2,0,0.3,0,0.5,0.1s0.4,0.1,0.5,0.2s0.3,0.2,0.4,0.3
		c0.1,0.1,0.2,0.3,0.3,0.4c0.2,0.4,0.3,0.8,0.4,1.2c0.1,0.4,0.1,1,0.2,1.5s0.1,1.2,0.1,1.9c0,0.7,0.1,1.5,0.1,2.4
		c0.2,1.8,0.4,3.2,0.7,4.1c0.3,0.9,0.8,1.4,1.4,1.4c0.2,0,0.5-0.1,0.9-0.3c0.4-0.2,0.7-0.5,1.1-0.8c0.4-0.3,0.8-0.7,1.2-1.1
		c0.4-0.4,0.8-0.8,1.2-1.2c0.4-0.4,0.7-0.8,1-1.2c0.3-0.4,0.7-0.8,1-1.3c0.3-0.4,0.7-0.9,1-1.4c0.4-0.5,0.7-1,1.1-1.5
		c0.1-0.2,0.3-0.3,0.4-0.3C197.8,74.9,197.9,75.1,197.9,75.5z"/>
	<path class="st2" d="M216.1,75.7c0,0.2-0.1,0.6-0.4,1.2c-0.6,1.1-1.2,2.2-1.9,3.3c-0.7,1.1-1.5,2.1-2.3,3.1s-1.7,1.9-2.5,2.8
		s-1.8,1.6-2.7,2.2c-0.9,0.6-1.8,1.1-2.7,1.4c-0.9,0.3-1.7,0.5-2.6,0.5c-1.8,0-3.2-0.7-4.2-2c-1-1.4-1.5-3.4-1.5-6.2
		c0-2.3,0.3-4.5,0.8-6.7s1.5-4.3,2.8-6.3c0.2-0.4,0.5-0.7,0.8-1s0.6-0.6,1-0.9s0.7-0.4,1.1-0.6s0.7-0.2,1.1-0.3c0.1,0,0.2,0,0.4,0
		s0.3,0.1,0.5,0.2c0.2,0.1,0.4,0.2,0.5,0.3c0.2,0.1,0.3,0.2,0.4,0.4c0.3,0.5,0.6,1,0.7,1.5c0.2,0.5,0.3,1,0.3,1.6c0,0.7,0,1.3-0.2,2
		c-0.1,0.7-0.4,1.3-0.7,2c-0.3,0.7-0.8,1.4-1.3,2.1c-0.5,0.7-1.2,1.5-1.9,2.3c-0.5,0.5-1,1.1-1.6,1.7c-0.6,0.6-1.3,1.3-2.1,2
		c0,1.4,0.3,2.5,1,3.2c0.7,0.7,1.5,1.1,2.7,1.1c0.6,0,1.3-0.1,1.9-0.3c0.6-0.2,1.3-0.5,1.9-0.9c0.6-0.4,1.2-0.8,1.8-1.2
		s1.1-0.9,1.6-1.4c0.9-0.9,1.8-1.8,2.6-2.7c0.8-0.9,1.5-1.9,2.3-2.8l0.9-1.2c0.5-0.6,0.9-0.9,1.2-0.9
		C216.1,75.2,216.1,75.4,216.1,75.7z M203.4,71.3c0-0.2,0-0.4-0.1-0.6c0-0.2-0.1-0.4-0.2-0.6s-0.2-0.3-0.3-0.4
		c-0.1-0.1-0.2-0.1-0.4-0.1c-0.6,0-1.2,0.5-1.8,1.4s-1.1,2.1-1.7,3.6c-0.1,0.3-0.2,0.7-0.3,1.1s-0.2,0.8-0.3,1.2
		c-0.1,0.4-0.2,0.8-0.2,1.2c-0.1,0.4-0.1,0.8-0.2,1.1c0.6-0.6,1.1-1.1,1.6-1.6c0.5-0.5,0.9-1,1.4-1.5c0.3-0.3,0.5-0.7,0.8-1
		c0.3-0.4,0.5-0.8,0.8-1.2s0.4-0.8,0.5-1.3C203.3,72.2,203.4,71.7,203.4,71.3z"/>
	<path class="st2" d="M229.7,73.1c0,0.1,0,0.2,0,0.4c0,0.2,0,0.3-0.1,0.5c0,0.2-0.1,0.3-0.2,0.5s-0.1,0.2-0.2,0.2
		c-0.1,0-0.2,0-0.3,0c-0.2,0-0.3,0-0.5,0s-0.3,0-0.5,0c-0.2,0-0.3,0-0.3,0c-2.1,0.2-3.9,1.2-5.3,3.1c-1.4,1.8-2.6,4.3-3.6,7.3
		c-0.2,0.6-0.4,1.3-0.6,2c-0.2,0.7-0.4,1.4-0.5,2.1c-0.1,0.4-0.2,0.8-0.2,1.1c0,0.3-0.1,0.6-0.2,1c0,0.1-0.1,0.2-0.3,0.3
		c-0.2,0.1-0.4,0.2-0.6,0.3c-0.2,0.1-0.4,0.2-0.6,0.2s-0.3,0.1-0.4,0.1c-0.8,0.1-1.2-1-1.3-3.1c0-0.6,0-1.1,0-1.6c0-0.5,0-0.9,0-1.4
		c0-0.4,0.1-0.9,0.1-1.4c0-0.5,0.1-1,0.1-1.7c0.1-0.8,0.1-1.6,0.2-2.6c0.1-1,0.2-2,0.3-3c0.1-1,0.2-2,0.3-2.9
		c0.1-0.9,0.2-1.7,0.4-2.3c0.1-0.7,0.3-1.2,0.5-1.5c0.2-0.3,0.5-0.5,1-0.5c0.1,0,0.2,0,0.4,0.1c0.1,0.1,0.2,0.2,0.4,0.3
		c0.1,0.1,0.2,0.3,0.3,0.4s0.1,0.3,0.1,0.4c0,0.4,0,0.8,0,1.2s-0.1,0.9-0.1,1.3s-0.1,0.9-0.2,1.4c-0.1,0.5-0.2,0.9-0.2,1.3
		c-0.2,0.8-0.3,1.5-0.4,2.1c-0.1,0.6-0.2,1.2-0.2,1.7c-0.1,0.6-0.1,1.2-0.2,1.8s-0.1,1.4-0.2,2.4c0.2-0.6,0.4-1,0.5-1.4
		s0.3-0.7,0.4-1c0.1-0.3,0.2-0.6,0.3-0.8s0.2-0.5,0.3-0.7c0.1-0.3,0.2-0.5,0.4-0.8s0.3-0.7,0.5-1.1c0.8-1.7,1.6-3.1,2.5-4.2
		s1.8-1.8,2.6-2.3c0.9-0.6,1.7-0.9,2.3-0.9c0.3,0,0.6,0,1,0.1s0.8,0.2,1.2,0.3c0.4,0.2,0.7,0.4,0.9,0.6
		C229.6,72.4,229.7,72.7,229.7,73.1z"/>
</g>
</svg>
